<svg width="512" height="512" viewBox="0 0 512 512" fill="none" xmlns="http://www.w3.org/2000/svg">
<circle cx="256" cy="256" r="256" fill="#C4C4C4"/>
<path d="M379 274C388.941 274 397 265.941 397 256C397 246.059 388.941 238 379 238V274ZM126.272 243.272C119.243 250.302 119.243 261.698 126.272 268.728L240.823 383.279C247.853 390.309 259.25 390.309 266.279 383.279C273.309 376.25 273.309 364.853 266.279 357.823L164.456 256L266.279 154.177C273.309 147.147 273.309 135.75 266.279 128.721C259.25 121.691 247.853 121.691 240.823 128.721L126.272 243.272ZM379 238L139 238V274H379V238Z" fill="black"/>
</svg>
