<svg width="24" height="24" viewBox="0 0 24 24" fill="none" xmlns="http://www.w3.org/2000/svg">
<path d="M20 0H4C1.79086 0 0 1.79086 0 4V20C0 22.2091 1.79086 24 4 24H20C22.2091 24 24 22.2091 24 20V4C24 1.79086 22.2091 0 20 0Z" fill="#09B980"/>
<path d="M12 24C14.3734 24 16.6934 23.2962 18.6668 21.9776C20.6402 20.6591 22.1783 18.7849 23.0865 16.5922C23.9948 14.3995 24.2324 11.9867 23.7694 9.65892C23.3064 7.33115 22.1635 5.19295 20.4853 3.51472C18.807 1.83649 16.6689 0.693605 14.3411 0.230582C12.0133 -0.232441 9.60051 0.00519941 7.4078 0.913451C5.21508 1.8217 3.34094 3.35977 2.02236 5.33316C0.703788 7.30655 0 9.62663 0 12C0 15.1826 1.26428 18.2348 3.51472 20.4853C4.62902 21.5996 5.95189 22.4835 7.4078 23.0866C8.8637 23.6896 10.4241 24 12 24Z" fill="#09B980"/>
<path d="M10.2736 16C10.1554 16 10.0384 15.9783 9.92927 15.9363C9.82013 15.8943 9.721 15.8327 9.63755 15.7552L6.24155 12.6058C6.08257 12.4476 5.99603 12.2383 6.00014 12.0221C6.00425 11.8058 6.09871 11.5995 6.2636 11.4466C6.4285 11.2937 6.65096 11.2061 6.88412 11.2023C7.11728 11.1985 7.34294 11.2787 7.51355 11.4262L10.2736 13.9857L16.4416 8.26565C16.5239 8.18365 16.6233 8.11787 16.7337 8.07225C16.8441 8.02664 16.9633 8.00211 17.0841 8.00013C17.205 7.99815 17.325 8.01877 17.4371 8.06075C17.5491 8.10272 17.6509 8.16521 17.7364 8.24446C17.8219 8.32372 17.8892 8.41813 17.9345 8.52205C17.9798 8.62598 18.002 8.7373 17.9999 8.84937C17.9977 8.96143 17.9713 9.07196 17.9221 9.17434C17.8729 9.27672 17.802 9.36886 17.7136 9.44528L10.9096 15.7552C10.8261 15.8327 10.727 15.8943 10.6178 15.9363C10.5087 15.9783 10.3917 16 10.2736 16Z" fill="white"/>
</svg>
