<svg width="122" height="100" viewBox="0 0 122 100" fill="none" xmlns="http://www.w3.org/2000/svg">
<path d="M92.4565 63.4736V58.4736H97.4565H112.104C114.729 58.4736 116.869 56.3332 116.869 53.7085V9.76518C116.869 7.14049 114.729 5 112.104 5H53.5132C50.8885 5 48.748 7.14049 48.748 9.76518V53.7085C48.748 56.3332 50.8885 58.4736 53.5132 58.4736H75.4848H77.1519L78.4853 59.474L92.4565 69.9552V63.4736Z" fill="white" stroke="#2880FE" stroke-width="10"/>
<path d="M29.4129 85.3477V80.3477H24.4129H9.76518C7.1405 80.3477 5 78.2072 5 75.5825V31.6392C5 29.0145 7.1405 26.874 9.76518 26.874H68.3562C70.9809 26.874 73.1214 29.0145 73.1214 31.6392V75.5825C73.1214 78.2072 70.9809 80.3477 68.3562 80.3477H46.3846H44.7176L43.3841 81.3481L29.4129 91.8292V85.3477Z" fill="white" stroke="#2880FE" stroke-width="10"/>
</svg>
