<svg width="300" height="300" viewBox="0 0 300 300" fill="none" xmlns="http://www.w3.org/2000/svg">
<path d="M150.833 91.6667C118.333 91.6667 92.5 117.5 92.5 150C92.5 182.5 118.333 208.333 150.833 208.333C183.333 208.333 209.167 182.5 209.167 150C209.167 117.5 183.333 91.6667 150.833 91.6667ZM150.833 191.667C127.5 191.667 109.167 173.333 109.167 150C109.167 126.667 127.5 108.333 150.833 108.333C174.167 108.333 192.5 126.667 192.5 150C192.5 173.333 174.167 191.667 150.833 191.667Z" fill="#CCCCCC"/>
<path d="M273.334 122.5L250 115L245 102.5L256.667 80.8333C259.167 75.8333 258.334 69.1667 254.167 65L234.167 45C230 40.8333 223.334 40 218.334 42.5L196.667 54.1667L184.167 49.1667L176.667 25.8333C175 20.8333 170 16.6667 164.167 16.6667H135.834C130 16.6667 125 20.8333 124.167 26.6667L116.667 50C111.667 50.8333 107.5 52.5 103.334 55L81.667 43.3333C76.667 40.8333 70.0003 41.6667 65.8337 45.8333L45.8337 65.8333C41.667 70 40.8337 76.6667 43.3337 81.6667L54.167 102.5C52.5003 106.667 50.8337 111.667 49.167 115.833L25.8337 123.333C20.8337 125 16.667 130 16.667 135.833V164.167C16.667 170 20.8337 175 26.667 176.667L50.0003 184.167L55.0003 196.667L43.3337 218.333C40.8337 223.333 41.667 230 45.8337 234.167L65.8337 254.167C70.0003 258.333 76.667 259.167 81.667 256.667L103.334 245L115.834 250L123.334 274.167C125 279.167 130 283.333 135.834 283.333H164.167C170 283.333 175 279.167 176.667 274.167L184.167 250L196.667 245L218.334 256.667C223.334 259.167 230 258.333 234.167 254.167L254.167 234.167C258.334 230 259.167 223.333 256.667 218.333L245 196.667L250 184.167L274.167 176.667C279.167 175 283.334 170 283.334 164.167V135.833C283.334 130 279.167 124.167 273.334 122.5ZM266.667 161.667L236.667 170.833L235.834 175L228.334 192.5L225.834 196.667L240.834 224.167L224.167 240.833L196.667 225.833L192.5 228.333C186.667 231.667 180.834 234.167 175 235.833L170.834 236.667L161.667 266.667H138.334L129.167 236.667L125 235.833L107.5 228.333L103.334 225.833L75.8337 240.833L59.167 224.167L74.167 196.667L71.667 192.5C68.3337 186.667 65.8337 180.833 64.167 175L63.3337 170.833L33.3337 161.667V138.333L61.667 130L63.3337 125.833C65.0003 119.167 67.5003 113.333 70.8337 107.5L73.3337 103.333L59.167 75.8333L75.8337 59.1667L102.5 74.1667L106.667 71.6667C112.5 68.3333 118.334 65.8333 125 64.1667L129.167 62.5L138.334 33.3333H161.667L170.834 62.5L175 64.1667C180.834 65.8333 186.667 68.3333 192.5 71.6667L196.667 74.1667L224.167 59.1667L240.834 75.8333L225.834 103.333L228.334 107.5C231.667 113.333 234.167 119.167 235.834 125L236.667 129.167L266.667 138.333V161.667Z" fill="#CCCCCC"/>
</svg>
