<svg width="100" height="100" viewBox="0 0 100 100" fill="none" xmlns="http://www.w3.org/2000/svg">
<path d="M50.0004 17.5278C50.7371 17.5278 51.4437 17.2352 51.9646 16.7142C52.4856 16.1933 52.7782 15.4868 52.7782 14.7501V5.30561C52.7782 4.5689 52.4856 3.86236 51.9646 3.34142C51.4437 2.82049 50.7371 2.52783 50.0004 2.52783C49.2637 2.52783 48.5572 2.82049 48.0362 3.34142C47.5153 3.86236 47.2227 4.5689 47.2227 5.30561V14.7501C47.2227 15.4868 47.5153 16.1933 48.0362 16.7142C48.5572 17.2352 49.2637 17.5278 50.0004 17.5278Z" fill="#7A7A7C"/>
<path d="M50.0004 82.4722C49.2637 82.4722 48.5572 82.7648 48.0362 83.2858C47.5153 83.8067 47.2227 84.5132 47.2227 85.2499V94.6944C47.2227 95.4311 47.5153 96.1377 48.0362 96.6586C48.5572 97.1795 49.2637 97.4722 50.0004 97.4722C50.7371 97.4722 51.4437 97.1795 51.9646 96.6586C52.4856 96.1377 52.7782 95.4311 52.7782 94.6944V85.2499C52.7782 84.5132 52.4856 83.8067 51.9646 83.2858C51.4437 82.7648 50.7371 82.4722 50.0004 82.4722V82.4722Z" fill="#7A7A7C"/>
<path d="M23.1119 27.0555C23.6285 27.5251 24.3028 27.7829 25.0008 27.7778C25.3664 27.7799 25.7288 27.7098 26.0672 27.5716C26.4057 27.4333 26.7135 27.2297 26.9731 26.9722C27.2334 26.714 27.4401 26.4067 27.5811 26.0682C27.7221 25.7298 27.7947 25.3667 27.7947 25C27.7947 24.6333 27.7221 24.2702 27.5811 23.9317C27.4401 23.5932 27.2334 23.286 26.9731 23.0278L20.3619 16.4444C19.8306 15.9894 19.147 15.7516 18.4479 15.7786C17.7488 15.8056 17.0856 16.0954 16.5909 16.5901C16.0962 17.0848 15.8064 17.748 15.7794 18.4471C15.7524 19.1462 15.9902 19.8297 16.4453 20.3611L23.1119 27.0555Z" fill="#7A7A7C"/>
<path d="M76.8883 72.9445C76.6293 72.6855 76.3219 72.48 75.9835 72.3399C75.6451 72.1997 75.2824 72.1276 74.9161 72.1276C74.5498 72.1276 74.1871 72.1997 73.8487 72.3399C73.5103 72.48 73.2029 72.6855 72.9439 72.9445C72.6849 73.2035 72.4794 73.511 72.3393 73.8493C72.1991 74.1877 72.127 74.5504 72.127 74.9167C72.127 75.283 72.1991 75.6457 72.3393 75.9841C72.4794 76.3225 72.6849 76.6299 72.9439 76.8889L79.6383 83.5556C79.8956 83.8181 80.2024 84.0269 80.5409 84.1699C80.8795 84.313 81.243 84.3874 81.6105 84.3889C82.3432 84.3785 83.0421 84.079 83.555 83.5556C84.0724 83.0351 84.3627 82.3311 84.3627 81.5973C84.3627 80.8634 84.0724 80.1594 83.555 79.6389L76.8883 72.9445Z" fill="#7A7A7C"/>
<path d="M17.5273 49.9999C17.5273 49.2632 17.2347 48.5567 16.7138 48.0358C16.1928 47.5148 15.4863 47.2222 14.7496 47.2222H5.30512C4.56841 47.2222 3.86187 47.5148 3.34094 48.0358C2.82 48.5567 2.52734 49.2632 2.52734 49.9999C2.52734 50.7367 2.82 51.4432 3.34094 51.9641C3.86187 52.4851 4.56841 52.7777 5.30512 52.7777H14.7496C15.4863 52.7777 16.1928 52.4851 16.7138 51.9641C17.2347 51.4432 17.5273 50.7367 17.5273 49.9999Z" fill="#7A7A7C"/>
<path d="M94.6949 47.2222H85.2504C84.5137 47.2222 83.8072 47.5148 83.2862 48.0358C82.7653 48.5567 82.4727 49.2632 82.4727 49.9999C82.4727 50.7367 82.7653 51.4432 83.2862 51.9641C83.8072 52.4851 84.5137 52.7777 85.2504 52.7777H94.6949C95.4316 52.7777 96.1381 52.4851 96.6591 51.9641C97.18 51.4432 97.4727 50.7367 97.4727 49.9999C97.4727 49.2632 97.18 48.5567 96.6591 48.0358C96.1381 47.5148 95.4316 47.2222 94.6949 47.2222Z" fill="#7A7A7C"/>
<path d="M23.1114 72.9445L16.4447 79.6389C16.0547 80.0258 15.7881 80.5196 15.6787 81.058C15.5693 81.5964 15.622 82.1551 15.8301 82.6635C16.0382 83.1719 16.3924 83.6072 16.848 83.9144C17.3035 84.2215 17.8398 84.3866 18.3892 84.3889C18.7567 84.3874 19.1203 84.313 19.4588 84.1699C19.7973 84.0269 20.1041 83.8181 20.3614 83.5556L27.0558 76.8889C27.5789 76.3659 27.8728 75.6564 27.8728 74.9167C27.8728 74.177 27.5789 73.4676 27.0558 72.9445C26.5328 72.4214 25.8233 72.1276 25.0836 72.1276C24.3439 72.1276 23.6345 72.4214 23.1114 72.9445V72.9445Z" fill="#7A7A7C"/>
<path d="M75.0009 27.7778C75.3665 27.7799 75.7289 27.7098 76.0673 27.5716C76.4058 27.4333 76.7136 27.2297 76.9731 26.9722L83.6398 20.2778C84.1572 19.7573 84.4476 19.0533 84.4476 18.3194C84.4476 17.5856 84.1572 16.8816 83.6398 16.3611C83.1194 15.8437 82.4153 15.5533 81.6815 15.5533C80.9476 15.5533 80.2436 15.8437 79.7231 16.3611L73.0287 23.0278C72.7683 23.286 72.5617 23.5932 72.4207 23.9317C72.2796 24.2702 72.207 24.6333 72.207 25C72.207 25.3667 72.2796 25.7298 72.4207 26.0683C72.5617 26.4068 72.7683 26.714 73.0287 26.9722C73.2883 27.2297 73.5961 27.4333 73.9345 27.5716C74.2729 27.7098 74.6353 27.7799 75.0009 27.7778Z" fill="#7A7A7C"/>
<path d="M50.3613 21.5278C44.7812 21.4562 39.3057 23.0455 34.6311 26.0935C29.9564 29.1416 26.2936 33.5109 24.1084 38.6459C21.9231 43.7808 21.3141 49.4497 22.3587 54.9316C23.4033 60.4136 26.0544 65.4612 29.975 69.4327C33.8955 73.4042 38.9084 76.1203 44.3764 77.2356C49.8445 78.3509 55.5207 77.8152 60.6834 75.6964C65.8462 73.5777 70.2624 69.9716 73.3706 65.3367C76.4788 60.7018 78.1387 55.2473 78.1391 49.6667C78.1761 42.255 75.2729 35.1309 70.0659 29.8562C64.8589 24.5815 57.7729 21.5866 50.3613 21.5278V21.5278ZM50.3613 72.2223C45.8789 72.294 41.4766 71.0299 37.7149 68.5912C33.9533 66.1525 31.0026 62.6493 29.2387 58.528C27.4747 54.4066 26.9772 49.8535 27.8097 45.4484C28.6421 41.0434 30.7667 36.9858 33.913 33.7923C37.0593 30.5988 41.0848 28.414 45.477 27.5161C49.8691 26.6182 54.4291 27.0478 58.5763 28.7503C62.7235 30.4527 66.2701 33.3509 68.7646 37.0758C71.2591 40.8007 72.5885 45.1837 72.5836 49.6667C72.6132 55.6003 70.2921 61.3041 66.1277 65.531C61.9634 69.7578 56.2947 72.1636 50.3613 72.2223V72.2223Z" fill="#7A7A7C"/>
</svg>
