<svg width="100" height="100" viewBox="0 0 100 100" fill="none" xmlns="http://www.w3.org/2000/svg">
<path d="M63.3122 23.975C63.5884 24.2789 63.9218 24.5253 64.2933 24.7003C64.6648 24.8752 65.0671 24.9752 65.4773 24.9946C65.8875 25.0139 66.2975 24.9522 66.6838 24.813C67.0701 24.6738 67.4252 24.4599 67.7288 24.1834L77.083 15.6834L86.4372 24.1834C87.0504 24.7386 87.8587 25.028 88.685 24.9882C89.5113 24.9484 90.288 24.5826 90.845 23.971C91.402 23.3594 91.6938 22.5519 91.6564 21.7255C91.619 20.8991 91.2555 20.1213 90.6455 19.5625L79.1871 9.14586C78.6117 8.62177 77.8613 8.3313 77.083 8.3313C76.3046 8.3313 75.5543 8.62177 74.9788 9.14586L63.5205 19.5625C63.2166 19.8387 62.9702 20.1721 62.7952 20.5436C62.6203 20.9152 62.5203 21.3175 62.501 21.7277C62.4816 22.1379 62.5433 22.5478 62.6825 22.9342C62.8217 23.3205 63.0356 23.6756 63.3122 23.9792V23.975ZM49.9997 16.6667C50.6254 16.6667 51.2368 16.8545 51.7545 17.2059C52.2723 17.5573 52.6727 18.056 52.9038 18.6375L76.8622 79.0542C77.1479 79.8203 77.1221 80.6679 76.7901 81.4151C76.4582 82.1623 75.8466 82.7497 75.0866 83.0512C74.3265 83.3527 73.4786 83.3443 72.7247 83.0279C71.9708 82.7114 71.3709 82.112 71.0538 81.3584L63.5747 62.5H36.4247L28.9455 81.3584C28.8002 81.7479 28.5785 82.1046 28.2936 82.4074C28.0087 82.7103 27.6662 82.9532 27.2862 83.122C26.9062 83.2908 26.4964 83.3821 26.0807 83.3905C25.665 83.3989 25.2517 83.3242 24.8652 83.1709C24.4788 83.0176 24.1267 82.7887 23.8298 82.4976C23.5329 82.2065 23.2971 81.8591 23.1362 81.4757C22.9752 81.0923 22.8924 80.6806 22.8926 80.2648C22.8927 79.849 22.9759 79.4375 23.1372 79.0542L47.0955 18.6375C47.3266 18.056 47.727 17.5573 48.2448 17.2059C48.7625 16.8545 49.3739 16.6667 49.9997 16.6667ZM38.9038 56.25H61.0955L49.9997 28.2709L38.9038 56.25Z" fill="#7A7A7C"/>
</svg>
