<svg width="100" height="100" viewBox="0 0 100 100" fill="none" xmlns="http://www.w3.org/2000/svg">
<path d="M67.7288 9.14581C67.4251 8.86949 67.07 8.65569 66.6837 8.51661C66.2974 8.37754 65.8875 8.31591 65.4773 8.33526C64.6491 8.37433 63.8702 8.74083 63.3122 9.35415C62.7541 9.96746 62.4625 10.7773 62.5016 11.6056C62.5407 12.4339 62.9072 13.2128 63.5205 13.7708L74.9788 24.1875C75.5543 24.7116 76.3046 25.002 77.083 25.002C77.8613 25.002 78.6117 24.7116 79.1871 24.1875L90.6455 13.7708C90.9492 13.4945 91.1954 13.1611 91.3703 12.7896C91.5451 12.4181 91.645 12.0158 91.6644 11.6056C91.6837 11.1955 91.6221 10.7856 91.483 10.3993C91.3439 10.013 91.1301 9.65783 90.8538 9.35415C90.5775 9.05047 90.2441 8.80418 89.8726 8.62936C89.5011 8.45454 89.0988 8.35461 88.6886 8.33526C88.2785 8.31591 87.8686 8.37754 87.4823 8.51661C87.096 8.65569 86.7408 8.86949 86.4372 9.14581L77.083 17.65L67.7288 9.14998V9.14581ZM49.9997 16.6666C50.6259 16.667 51.2376 16.8554 51.7554 17.2076C52.2733 17.5597 52.6734 18.0594 52.9038 18.6416L76.8622 79.0583C77.1383 79.8224 77.106 80.6639 76.7721 81.4046C76.4382 82.1453 75.8291 82.7268 75.0737 83.0259C74.3183 83.325 73.4762 83.3182 72.7258 83.0069C71.9753 82.6956 71.3756 82.1043 71.0538 81.3583L63.5747 62.5H36.4246L28.9455 81.3583C28.8002 81.7479 28.5785 82.1045 28.2936 82.4074C28.0087 82.7102 27.6662 82.9532 27.2862 83.122C26.9062 83.2908 26.4964 83.382 26.0807 83.3904C25.665 83.3988 25.2517 83.3242 24.8652 83.1709C24.4788 83.0175 24.1267 82.7886 23.8298 82.4975C23.5329 82.2064 23.2971 81.859 23.1362 81.4756C22.9752 81.0922 22.8924 80.6806 22.8926 80.2648C22.8927 79.849 22.9759 79.4374 23.1372 79.0541L47.0955 18.6375C47.3266 18.056 47.727 17.5572 48.2448 17.2058C48.7625 16.8545 49.3739 16.6666 49.9997 16.6666ZM49.9997 28.2708L38.9038 56.25H61.0955L49.9997 28.2708Z" fill="#7A7A7C"/>
</svg>
