<svg width="100" height="100" viewBox="0 0 100 100" fill="none" xmlns="http://www.w3.org/2000/svg">
<path d="M50.0004 17.5278C50.7371 17.5278 51.4437 17.2352 51.9646 16.7142C52.4856 16.1933 52.7782 15.4868 52.7782 14.7501V5.30561C52.7782 4.5689 52.4856 3.86236 51.9646 3.34142C51.4437 2.82049 50.7371 2.52783 50.0004 2.52783C49.2637 2.52783 48.5572 2.82049 48.0362 3.34142C47.5153 3.86236 47.2227 4.5689 47.2227 5.30561V14.7501C47.2227 15.4868 47.5153 16.1933 48.0362 16.7142C48.5572 17.2352 49.2637 17.5278 50.0004 17.5278Z" fill="#7A7A7C"/>
<path d="M50.0004 82.4722C49.2637 82.4722 48.5572 82.7648 48.0362 83.2858C47.5153 83.8067 47.2227 84.5132 47.2227 85.2499V94.6944C47.2227 95.4311 47.5153 96.1377 48.0362 96.6586C48.5572 97.1795 49.2637 97.4722 50.0004 97.4722C50.7371 97.4722 51.4437 97.1795 51.9646 96.6586C52.4856 96.1377 52.7782 95.4311 52.7782 94.6944V85.2499C52.7782 84.5132 52.4856 83.8067 51.9646 83.2858C51.4437 82.7648 50.7371 82.4722 50.0004 82.4722V82.4722Z" fill="#7A7A7C"/>
<path d="M17.5273 49.9999C17.5273 49.2632 17.2347 48.5567 16.7138 48.0358C16.1928 47.5148 15.4863 47.2222 14.7496 47.2222H5.30512C4.56841 47.2222 3.86187 47.5148 3.34094 48.0358C2.82 48.5567 2.52734 49.2632 2.52734 49.9999C2.52734 50.7367 2.82 51.4432 3.34094 51.9641C3.86187 52.4851 4.56841 52.7777 5.30512 52.7777H14.7496C15.4863 52.7777 16.1928 52.4851 16.7138 51.9641C17.2347 51.4432 17.5273 50.7367 17.5273 49.9999Z" fill="#7A7A7C"/>
<path d="M94.6949 47.2222H85.2504C84.5137 47.2222 83.8072 47.5148 83.2862 48.0358C82.7653 48.5567 82.4727 49.2632 82.4727 49.9999C82.4727 50.7367 82.7653 51.4432 83.2862 51.9641C83.8072 52.4851 84.5137 52.7777 85.2504 52.7777H94.6949C95.4316 52.7777 96.1381 52.4851 96.6591 51.9641C97.18 51.4432 97.4727 50.7367 97.4727 49.9999C97.4727 49.2632 97.18 48.5567 96.6591 48.0358C96.1381 47.5148 95.4316 47.2222 94.6949 47.2222Z" fill="#7A7A7C"/>
<path d="M50.3613 21.5278C44.7812 21.4562 39.3057 23.0455 34.6311 26.0935C29.9564 29.1416 26.2936 33.5109 24.1084 38.6459C21.9231 43.7808 21.3141 49.4497 22.3587 54.9316C23.4033 60.4136 26.0544 65.4612 29.975 69.4327C33.8955 73.4042 38.9084 76.1203 44.3764 77.2356C49.8445 78.3509 55.5207 77.8152 60.6834 75.6964C65.8462 73.5777 70.2624 69.9716 73.3706 65.3367C76.4788 60.7018 78.1387 55.2473 78.1391 49.6667C78.1761 42.255 75.2729 35.1309 70.0659 29.8562C64.8589 24.5815 57.7729 21.5866 50.3613 21.5278V21.5278ZM50.3613 72.2223C45.8789 72.294 41.4766 71.0299 37.7149 68.5912C33.9533 66.1525 31.0026 62.6493 29.2387 58.528C27.4747 54.4066 26.9772 49.8535 27.8097 45.4484C28.6421 41.0434 30.7667 36.9858 33.913 33.7923C37.0593 30.5988 41.0848 28.414 45.477 27.5161C49.8691 26.6182 54.4291 27.0478 58.5763 28.7503C62.7235 30.4527 66.2701 33.3509 68.7646 37.0758C71.2591 40.8007 72.5885 45.1837 72.5836 49.6667C72.6132 55.6003 70.2921 61.3041 66.1277 65.531C61.9634 69.7578 56.2947 72.1636 50.3613 72.2223V72.2223Z" fill="#7A7A7C"/>
</svg>
