<svg xmlns="http://www.w3.org/2000/svg" width="18.415" height="11.79" viewBox="0 0 18.415 11.79">
  <g id="Group_5732" data-name="Group 5732" transform="translate(-1976.331 1282.75)">
    <g id="Group_5731" data-name="Group 5731" transform="translate(1615 -1628)" opacity="0.5">
      <path id="Path_16127" data-name="Path 16127" d="M9.389,4.5A9.053,9.053,0,0,0,1,9.645,9.053,9.053,0,0,0,9.389,14.79a9.053,9.053,0,0,0,8.389-5.145A9.053,9.053,0,0,0,9.389,4.5Zm0,8.575a3.638,3.638,0,0,1-3.813-3.43,3.638,3.638,0,0,1,3.813-3.43A3.638,3.638,0,0,1,13.2,9.645,3.638,3.638,0,0,1,9.389,13.075Z" transform="translate(361.15 341.5)" fill="none" stroke="#a0a0a0" stroke-miterlimit="10" stroke-width="1.5"/>
    </g>
  </g>
</svg>
